<?xml version="1.0" encoding="UTF-8"?>
<!DOCTYPE svg PUBLIC "-//W3C//DTD SVG 1.1//EN" "http://www.w3.org/Graphics/SVG/1.1/DTD/svg11.dtd">
<svg xmlns="http://www.w3.org/2000/svg" version="1.1" width="32px" height="32px" style="shape-rendering:geometricPrecision; text-rendering:geometricPrecision; image-rendering:optimizeQuality; fill-rule:evenodd; clip-rule:evenodd" xmlns:xlink="http://www.w3.org/1999/xlink">
<g><path style="opacity:0.961" fill="#fafafc" d="M 2.5,-0.5 C 11.5,-0.5 20.5,-0.5 29.5,-0.5C 29.9321,0.709515 30.5987,1.70951 31.5,2.5C 31.5,11.1667 31.5,19.8333 31.5,28.5C 30.5987,29.2905 29.9321,30.2905 29.5,31.5C 20.1667,31.5 10.8333,31.5 1.5,31.5C 1.06795,30.2905 0.40128,29.2905 -0.5,28.5C -0.5,19.8333 -0.5,11.1667 -0.5,2.5C 0.5,1.5 1.5,0.5 2.5,-0.5 Z"/></g>
<g><path style="opacity:1" fill="#dcdfeb" d="M 26.5,13.5 C 27.8333,14.8333 27.8333,16.1667 26.5,17.5C 25.3991,16.4017 24.0657,16.235 22.5,17C 20.2968,19.3722 17.9635,21.5389 15.5,23.5C 13.0365,21.5389 10.7032,19.3722 8.5,17C 6.93426,16.235 5.60093,16.4017 4.5,17.5C 3.16667,16.1667 3.16667,14.8333 4.5,13.5C 5.60093,14.5983 6.93426,14.765 8.5,14C 10.6829,11.6496 13.0163,9.48298 15.5,7.5C 17.9837,9.48298 20.3171,11.6496 22.5,14C 24.0657,14.765 25.3991,14.5983 26.5,13.5 Z"/></g>
<g><path style="opacity:1" fill="#2c3f86" d="M 26.5,13.5 C 25.3991,14.5983 24.0657,14.765 22.5,14C 20.3171,11.6496 17.9837,9.48298 15.5,7.5C 13.0163,9.48298 10.6829,11.6496 8.5,14C 6.93426,14.765 5.60093,14.5983 4.5,13.5C 8.14662,10.1887 11.8133,6.85537 15.5,3.5C 19.1867,6.85537 22.8534,10.1887 26.5,13.5 Z"/></g>
<g><path style="opacity:1" fill="#6570a3" d="M 14.5,12.5 C 15.2679,13.2625 15.7679,14.2625 16,15.5C 16.4226,14.0439 17.2559,13.5439 18.5,14C 17.4063,15.7803 16.4063,17.6136 15.5,19.5C 14.7582,17.6503 13.7582,16.9836 12.5,17.5C 13.4565,15.9246 14.1231,14.258 14.5,12.5 Z"/></g>
<g><path style="opacity:1" fill="#2c4797" d="M 26.5,17.5 C 22.8333,20.8333 19.1667,24.1667 15.5,27.5C 15.5,26.1667 15.5,24.8333 15.5,23.5C 17.9635,21.5389 20.2968,19.3722 22.5,17C 24.0657,16.235 25.3991,16.4017 26.5,17.5 Z"/></g>
<g><path style="opacity:1" fill="#2d3978" d="M 4.5,17.5 C 5.60093,16.4017 6.93426,16.235 8.5,17C 10.7032,19.3722 13.0365,21.5389 15.5,23.5C 15.5,24.8333 15.5,26.1667 15.5,27.5C 11.8333,24.1667 8.16667,20.8333 4.5,17.5 Z"/></g>
</svg>
